<svg id="Layer_1" data-name="Layer 1" xmlns="http://www.w3.org/2000/svg" viewBox="0 0 1000 1000"><defs><style>.cls-1{fill:#171a2f;}.cls-2{fill:#151e23;}</style></defs><title>bandit-logo2-text-BK</title><path class="cls-1" d="M235.7,771.2a21.7,21.7,0,0,0,7.4-16.9V730.7a14.4,14.4,0,0,0-5-11,16.8,16.8,0,0,0-11.9-4.6H179V829.4h33.5q14,0,23.4-7.5a25.7,25.7,0,0,0,10-21.1V790.2A21.5,21.5,0,0,0,235.7,771.2Zm-34-34.9h18.7v18a6.9,6.9,0,0,1-2.5,5.3,8.3,8.3,0,0,1-5.7,2H201.7Zm21.5,64.5c0,5-3.6,7.4-10.7,7.4H201.7V782.9h13.4a8.7,8.7,0,0,1,5.7,2.1,6.6,6.6,0,0,1,2.4,5.2Z"/><path class="cls-1" d="M348.6,715.1H318.5L296.3,829.4h23l14.2-93,14.2,93h23Z"/><path class="cls-1" d="M471.6,715.1v74l-18.5-74H421.6V829.4h22.7V755.8l18.6,73.6h31.4V715.1Z"/><path class="cls-1" d="M615.7,719.7a16.5,16.5,0,0,0-11.8-4.6H553.8V829.4h33.5q14,0,23.4-7.5c6.7-5.3,10-12.3,10-21.1V730.7A14.4,14.4,0,0,0,615.7,719.7ZM598,800.8c0,5-3.6,7.4-10.7,7.4H576.5V736.3H598Z"/><path class="cls-1" d="M679,715.1V829.4h22.7V715.1Z"/><path class="cls-1" d="M754.1,715.1v21.2h22.2v93.1h22.6V736.3H821V715.1Z"/><path class="cls-2" d="M792.2,170.6H555.7a14,14,0,0,0-14,13.9h0a13.9,13.9,0,0,1-13.9,13.9H472.2a14,14,0,0,1-14-13.9h0a13.9,13.9,0,0,0-13.9-13.9H193.9A13.9,13.9,0,0,0,180,184.5V323.7a13.9,13.9,0,0,0,13.9,13.9h0a13.9,13.9,0,0,1,13.9,13.9h0a13.9,13.9,0,0,0,13.9,13.9h0a14,14,0,0,1,13.9,14h0a13.9,13.9,0,0,0,13.9,13.9H444.3a13.9,13.9,0,0,0,13.9-13.9h0a14,14,0,0,1,14-14h0a13.9,13.9,0,0,0,13.9-13.9h0A13.9,13.9,0,0,1,500,337.6h0a13.9,13.9,0,0,1,13.9,13.9h0a13.9,13.9,0,0,0,13.9,13.9h0a14,14,0,0,1,13.9,14h0a14,14,0,0,0,14,13.9H750.5a14,14,0,0,0,13.9-13.9h0a14,14,0,0,1,13.9-14h0a13.9,13.9,0,0,0,13.9-13.9h0a13.9,13.9,0,0,1,13.9-13.9h0A13.9,13.9,0,0,0,820,323.7V184.5a13.9,13.9,0,0,0-13.9-13.9ZM597.4,254.1H722.6A13.9,13.9,0,0,1,736.5,268h0a14,14,0,0,1-13.9,14h0a13.9,13.9,0,0,0-13.9,13.9h0a13.9,13.9,0,0,1-13.9,13.9H611.3a13.9,13.9,0,0,1-13.9-13.9h0A13.9,13.9,0,0,0,583.5,282h0a14,14,0,0,1-13.9-14h0a13.9,13.9,0,0,1,13.9-13.9ZM416.5,282h0a13.9,13.9,0,0,0-13.9,13.9h0a13.9,13.9,0,0,1-13.9,13.9H305.2a13.9,13.9,0,0,1-13.9-13.9h0A13.9,13.9,0,0,0,277.4,282h0a14,14,0,0,1-13.9-14h0a13.9,13.9,0,0,1,13.9-13.9H416.5A13.9,13.9,0,0,1,430.4,268h0A14,14,0,0,1,416.5,282Z"/><path class="cls-2" d="M639.1,476.8h0a14,14,0,0,1-13.9-13.9h0a14,14,0,0,0-13.9-14H527.8a14,14,0,0,0-13.9,14h0A13.9,13.9,0,0,1,500,476.8h0a13.9,13.9,0,0,1-13.9-13.9h0a14,14,0,0,0-13.9-14H388.7a14,14,0,0,0-13.9,14h0a14,14,0,0,1-13.9,13.9h-.1a13.9,13.9,0,0,0-13.9,13.9h0A13.9,13.9,0,0,1,333,504.6h0a13.9,13.9,0,0,0-13.9,13.9v27.8a14,14,0,0,0,13.9,14h0a14,14,0,0,0,13.9-14h0a14,14,0,0,1,14-13.9h0a13.9,13.9,0,0,0,13.9-13.9h0a13.9,13.9,0,0,1,13.9-13.9H611.3a13.9,13.9,0,0,1,13.9,13.9h0a13.9,13.9,0,0,0,13.9,13.9h0a14,14,0,0,1,14,13.9h0a14,14,0,0,0,13.9,14h0a14,14,0,0,0,13.9-14V518.5A13.9,13.9,0,0,0,667,504.6h0a13.9,13.9,0,0,1-13.9-13.9h0A14,14,0,0,0,639.1,476.8Z"/><path class="cls-2" d="M513.9,532.4H444.3a13.9,13.9,0,0,0-13.9,13.9h0a14,14,0,0,0,13.9,14h0a13.9,13.9,0,0,1,13.9,13.9h0a14,14,0,0,0,14,13.9h0A13.9,13.9,0,0,1,486.1,602v27.8A13.9,13.9,0,0,0,500,643.7h0a13.9,13.9,0,0,0,13.9-13.9V602a13.9,13.9,0,0,1,13.9-13.9h0a13.9,13.9,0,0,0,13.9-13.9h0a14,14,0,0,1,14-13.9h0a14,14,0,0,0,13.9-14h0a13.9,13.9,0,0,0-13.9-13.9H513.9Z"/></svg>