<svg id="Layer_1" data-name="Layer 1" xmlns="http://www.w3.org/2000/svg" viewBox="0 0 1464.7 495.9"><defs><style>.cls-1{fill:#fff;}</style></defs><title>bandit-logo1-text-hor-WH</title><path class="cls-1" d="M388.8,123.8H257.3v14.6H213.5V123.8H67.4v87.6H82V226H96.6v14.6H213.5V226h14.6V211.4h14.6V226h14.6v14.6H374.2V226h14.6V211.4h14.6V123.8ZM286.5,167.6h73.1v14.6H345v14.6H286.5V182.2H271.9V167.6Zm-87.6,14.6H184.3v14.6H125.8V182.2H111.2V167.6h87.7Z"/><polygon class="cls-1" points="315.8 284.5 301.1 284.5 301.1 269.9 286.5 269.9 271.9 269.9 257.3 269.9 242.7 269.9 242.7 284.5 228.1 284.5 228.1 269.9 213.5 269.9 198.9 269.9 184.3 269.9 169.7 269.9 169.7 284.5 155.1 284.5 155.1 299.1 140.4 299.1 140.4 313.3 140.4 313.7 140.4 328.3 155.1 328.3 155.1 313.7 169.7 313.7 169.7 299.1 184.3 299.1 198.9 299.1 213.5 299.1 228.1 299.1 242.7 299.1 257.3 299.1 271.9 299.1 286.5 299.1 301.1 299.1 301.1 313.7 315.8 313.7 315.8 328.3 330.4 328.3 330.4 313.7 330.4 313.3 330.4 299.1 315.8 299.1 315.8 284.5"/><polygon class="cls-1" points="242.7 313.7 228.1 313.7 213.5 313.7 198.9 313.7 198.9 328.3 213.5 328.3 213.5 342.9 228.1 342.9 228.1 357.5 228.1 372.1 242.7 372.1 242.7 357.5 242.7 342.9 257.3 342.9 257.3 328.3 271.9 328.3 271.9 313.7 257.3 313.7 242.7 313.7"/><path class="cls-1" d="M591,231.8c6.8-6,10.2-13.7,10.2-23.2V176.1a20.1,20.1,0,0,0-6.8-15.2,23.6,23.6,0,0,0-16.4-6.3H513V312h46c12.9,0,23.7-3.5,32.3-10.3s13.8-17,13.8-29V258.1C605.1,246.8,600.4,238,591,231.8Zm-46.7-48H570v24.8a9.2,9.2,0,0,1-3.4,7.2,12.1,12.1,0,0,1-8,2.9H544.3Zm29.5,88.9c0,6.8-4.9,10.2-14.8,10.2H544.3v-35h18.3a12,12,0,0,1,7.9,2.9,9.5,9.5,0,0,1,3.3,7.3Z"/><path class="cls-1" d="M746.6,154.6H705.1L674.6,312h31.6l19.6-128.1L745.3,312H777Z"/><path class="cls-1" d="M916,154.6V256.5L890.5,154.6H847.1V312h31.3V210.6L904,312h43.3V154.6Z"/><path class="cls-1" d="M1114.5,160.9a22.9,22.9,0,0,0-16.2-6.3h-69V312h46.1c12.9,0,23.6-3.5,32.3-10.3s13.7-17,13.7-29V176.1A19.9,19.9,0,0,0,1114.5,160.9Zm-24.3,111.8c0,6.8-5,10.2-14.8,10.2h-14.8V183.8h29.6Z"/><path class="cls-1" d="M1201.8,154.6V312h31.3V154.6Z"/><path class="cls-1" d="M1305.3,154.6v29.2h30.5V312h31.1V183.8h30.4V154.6Z"/></svg>