<svg id="Layer_1" data-name="Layer 1" xmlns="http://www.w3.org/2000/svg" viewBox="0 0 1000 1000"><defs><style>.cls-1{fill:#fff;}</style></defs><title>bandit-logo1-only-WH</title><path class="cls-1" d="M847.9,218.4H549.7v33.1H450.3V218.4H119V417.2h33.1v33.1h33.2v33.1h265V450.3h33.1V417.2h33.2v33.1h33.1v33.1h265V450.3h33.2V417.2H881V218.4ZM616,317.8H781.6v33.1H748.5v33.2H616V350.9H582.8V317.8ZM417.2,350.9H384v33.2H251.5V350.9H218.4V317.8H417.2Z"/><polygon class="cls-1" points="682.2 582.8 649.1 582.8 649.1 549.7 616 549.7 582.8 549.7 549.7 549.7 516.6 549.7 516.6 582.8 483.4 582.8 483.4 549.7 450.3 549.7 417.2 549.7 384 549.7 350.9 549.7 350.9 582.8 317.8 582.8 317.8 616 284.6 616 284.6 648.1 284.6 649.1 284.6 682.2 317.8 682.2 317.8 649.1 350.9 649.1 350.9 616 384 616 417.2 616 450.3 616 483.4 616 516.6 616 549.7 616 582.8 616 616 616 649.1 616 649.1 649.1 682.2 649.1 682.2 682.2 715.3 682.2 715.3 649.1 715.3 648.1 715.3 616 682.2 616 682.2 582.8"/><polygon class="cls-1" points="516.6 649.1 483.4 649.1 450.3 649.1 417.2 649.1 417.2 682.2 450.3 682.2 450.3 715.4 483.4 715.4 483.4 748.5 483.4 781.6 516.6 781.6 516.6 748.5 516.6 715.4 549.7 715.4 549.7 682.2 582.8 682.2 582.8 649.1 549.7 649.1 516.6 649.1"/></svg>