<svg id="Layer_1" data-name="Layer 1" xmlns="http://www.w3.org/2000/svg" viewBox="0 0 1464.7 495.9"><defs><style>.cls-1{fill:#151e23;}.cls-2{fill:#171a2f;}</style></defs><title>bandit-logo2-text-hor-BK</title><path class="cls-1" d="M388.8,123.8H264.6a7.3,7.3,0,0,0-7.3,7.3h0a7.3,7.3,0,0,1-7.3,7.3H220.8a7.3,7.3,0,0,1-7.3-7.3h0a7.3,7.3,0,0,0-7.3-7.3H74.7a7.3,7.3,0,0,0-7.3,7.3v73a7.3,7.3,0,0,0,7.3,7.3h0a7.3,7.3,0,0,1,7.3,7.3h0a7.3,7.3,0,0,0,7.3,7.3h0a7.3,7.3,0,0,1,7.3,7.3h0a7.3,7.3,0,0,0,7.3,7.3H206.2a7.3,7.3,0,0,0,7.3-7.3h0a7.3,7.3,0,0,1,7.3-7.3h0a7.3,7.3,0,0,0,7.3-7.3h0a7.3,7.3,0,0,1,7.3-7.3h0a7.3,7.3,0,0,1,7.3,7.3h0A7.3,7.3,0,0,0,250,226h0a7.3,7.3,0,0,1,7.3,7.3h0a7.3,7.3,0,0,0,7.3,7.3H366.9a7.3,7.3,0,0,0,7.3-7.3h0a7.3,7.3,0,0,1,7.3-7.3h0a7.3,7.3,0,0,0,7.3-7.3h0a7.3,7.3,0,0,1,7.3-7.3h0a7.3,7.3,0,0,0,7.3-7.3v-73a7.3,7.3,0,0,0-7.3-7.3ZM286.5,167.6h65.8a7.3,7.3,0,0,1,7.3,7.3h0a7.3,7.3,0,0,1-7.3,7.3h0a7.3,7.3,0,0,0-7.3,7.3h0a7.3,7.3,0,0,1-7.3,7.3H293.8a7.3,7.3,0,0,1-7.3-7.3h0a7.3,7.3,0,0,0-7.3-7.3h0a7.3,7.3,0,0,1-7.3-7.3h0a7.3,7.3,0,0,1,7.3-7.3Zm-94.9,14.6h0a7.3,7.3,0,0,0-7.3,7.3h0a7.3,7.3,0,0,1-7.3,7.3H133.1a7.3,7.3,0,0,1-7.3-7.3h0a7.3,7.3,0,0,0-7.3-7.3h0a7.3,7.3,0,0,1-7.3-7.3h0a7.3,7.3,0,0,1,7.3-7.3h73.1a7.3,7.3,0,0,1,7.3,7.3h0A7.3,7.3,0,0,1,191.6,182.2Z"/><path class="cls-1" d="M308.5,284.5h0a7.4,7.4,0,0,1-7.4-7.3h0a7.2,7.2,0,0,0-7.3-7.3H250a7.3,7.3,0,0,0-7.3,7.3h0a7.3,7.3,0,0,1-7.3,7.3h0a7.3,7.3,0,0,1-7.3-7.3h0a7.3,7.3,0,0,0-7.3-7.3H177a7.2,7.2,0,0,0-7.3,7.3h0a7.3,7.3,0,0,1-7.3,7.3h0a7.2,7.2,0,0,0-7.3,7.3h0a7.3,7.3,0,0,1-7.3,7.3h-.1a7.3,7.3,0,0,0-7.3,7.3V321a7.3,7.3,0,0,0,7.3,7.3h.1a7.3,7.3,0,0,0,7.3-7.3h0a7.3,7.3,0,0,1,7.3-7.3h0a7.3,7.3,0,0,0,7.3-7.3h0a7.3,7.3,0,0,1,7.3-7.3H293.8a7.3,7.3,0,0,1,7.3,7.3h0a7.4,7.4,0,0,0,7.4,7.3h0a7.3,7.3,0,0,1,7.3,7.3h0a7.3,7.3,0,0,0,7.3,7.3h0a7.3,7.3,0,0,0,7.3-7.3V306.4a7.3,7.3,0,0,0-7.3-7.3h0a7.3,7.3,0,0,1-7.3-7.3h0A7.3,7.3,0,0,0,308.5,284.5Z"/><path class="cls-1" d="M242.7,313.7H206.2a7.3,7.3,0,0,0-7.3,7.3h0a7.3,7.3,0,0,0,7.3,7.3h0a7.3,7.3,0,0,1,7.3,7.3h0a7.3,7.3,0,0,0,7.3,7.3h0a7.3,7.3,0,0,1,7.3,7.3v14.6a7.3,7.3,0,0,0,7.3,7.3h0a7.3,7.3,0,0,0,7.3-7.3V350.2a7.3,7.3,0,0,1,7.3-7.3h0a7.3,7.3,0,0,0,7.3-7.3h0a7.3,7.3,0,0,1,7.3-7.3h0a7.3,7.3,0,0,0,7.3-7.3h0a7.3,7.3,0,0,0-7.3-7.3H242.7Z"/><path class="cls-2" d="M591,231.8c6.8-6,10.2-13.7,10.2-23.2V176.1a20.1,20.1,0,0,0-6.8-15.2,23.6,23.6,0,0,0-16.4-6.3H513V312h46c12.9,0,23.7-3.5,32.3-10.3s13.8-17,13.8-29V258.1C605.1,246.8,600.4,238,591,231.8Zm-46.7-48H570v24.8a9.2,9.2,0,0,1-3.4,7.2,12.1,12.1,0,0,1-8,2.9H544.3Zm29.5,88.9c0,6.8-4.9,10.2-14.8,10.2H544.3v-35h18.3a12,12,0,0,1,7.9,2.9,9.5,9.5,0,0,1,3.3,7.3Z"/><path class="cls-2" d="M746.6,154.6H705.1L674.6,312h31.6l19.6-128.1L745.3,312H777Z"/><path class="cls-2" d="M916,154.6V256.5L890.5,154.6H847.1V312h31.3V210.6L904,312h43.3V154.6Z"/><path class="cls-2" d="M1114.5,160.9a22.9,22.9,0,0,0-16.2-6.3h-69V312h46.1c12.9,0,23.6-3.5,32.3-10.3s13.7-17,13.7-29V176.1A19.9,19.9,0,0,0,1114.5,160.9Zm-24.3,111.8c0,6.8-5,10.2-14.8,10.2h-14.8V183.8h29.6Z"/><path class="cls-2" d="M1201.8,154.6V312h31.3V154.6Z"/><path class="cls-2" d="M1305.3,154.6v29.2h30.5V312h31.1V183.8h30.4V154.6Z"/></svg>