<svg id="Layer_1" data-name="Layer 1" xmlns="http://www.w3.org/2000/svg" viewBox="0 0 1000 1000"><defs><style>.cls-1{fill:#fff;}</style></defs><title>bandit-logo1-text-WH</title><path class="cls-1" d="M235.7,771.2a21.7,21.7,0,0,0,7.4-16.9V730.7a14.4,14.4,0,0,0-5-11,16.8,16.8,0,0,0-11.9-4.6H179V829.4h33.5q14,0,23.4-7.5a25.7,25.7,0,0,0,10-21.1V790.2A21.5,21.5,0,0,0,235.7,771.2Zm-34-34.9h18.7v18a6.9,6.9,0,0,1-2.5,5.3,8.3,8.3,0,0,1-5.7,2H201.7Zm21.5,64.5c0,5-3.6,7.4-10.7,7.4H201.7V782.9h13.4a8.7,8.7,0,0,1,5.7,2.1,6.6,6.6,0,0,1,2.4,5.2Z"/><path class="cls-1" d="M348.6,715.1H318.5L296.3,829.4h23l14.2-93,14.2,93h23Z"/><path class="cls-1" d="M471.6,715.1v74l-18.5-74H421.6V829.4h22.7V755.8l18.6,73.6h31.4V715.1Z"/><path class="cls-1" d="M615.7,719.7a16.5,16.5,0,0,0-11.8-4.6H553.8V829.4h33.5q14,0,23.4-7.5c6.7-5.3,10-12.3,10-21.1V730.7A14.4,14.4,0,0,0,615.7,719.7ZM598,800.8c0,5-3.6,7.4-10.7,7.4H576.5V736.3H598Z"/><path class="cls-1" d="M679,715.1V829.4h22.7V715.1Z"/><path class="cls-1" d="M754.1,715.1v21.2h22.2v93.1h22.6V736.3H821V715.1Z"/><path class="cls-1" d="M792.2,170.6H541.7v27.9H458.2V170.6H180v167h27.8v27.8h27.8v27.9H458.2V365.4h27.9V337.6h27.8v27.8h27.8v27.9H764.4V365.4h27.8V337.6H820v-167ZM597.4,254.1H736.5V282H708.7v27.8H597.4V282H569.6V254.1ZM430.4,282H402.6v27.8H291.3V282H263.5V254.1H430.4Z"/><polygon class="cls-1" points="653.1 476.8 625.2 476.8 625.2 448.9 597.4 448.9 569.6 448.9 541.7 448.9 513.9 448.9 513.9 476.8 486.1 476.8 486.1 448.9 458.2 448.9 430.4 448.9 402.6 448.9 374.8 448.9 374.8 476.8 346.9 476.8 346.9 504.6 319.1 504.6 319.1 531.6 319.1 532.4 319.1 560.3 346.9 560.3 346.9 532.4 374.8 532.4 374.8 504.6 402.6 504.6 430.4 504.6 458.2 504.6 486.1 504.6 513.9 504.6 541.7 504.6 569.6 504.6 597.4 504.6 625.2 504.6 625.2 532.4 653.1 532.4 653.1 560.3 680.9 560.3 680.9 532.4 680.9 531.6 680.9 504.6 653.1 504.6 653.1 476.8"/><polygon class="cls-1" points="513.9 532.4 486.1 532.4 458.2 532.4 430.4 532.4 430.4 560.3 458.2 560.3 458.2 588.1 486.1 588.1 486.1 615.9 486.1 643.7 513.9 643.7 513.9 615.9 513.9 588.1 541.7 588.1 541.7 560.3 569.6 560.3 569.6 532.4 541.7 532.4 513.9 532.4"/></svg>