<svg id="Layer_1" data-name="Layer 1" xmlns="http://www.w3.org/2000/svg" viewBox="0 0 1000 1000"><defs><style>.cls-1{fill:#fff;}</style></defs><title>bandit-logo2-only-WH</title><path class="cls-1" d="M847.9,218.4H566.3A16.6,16.6,0,0,0,549.7,235h0a16.5,16.5,0,0,1-16.6,16.5H466.9A16.5,16.5,0,0,1,450.3,235h0a16.6,16.6,0,0,0-16.6-16.6H135.6A16.6,16.6,0,0,0,119,235V400.6a16.6,16.6,0,0,0,16.6,16.6h0a16.5,16.5,0,0,1,16.5,16.5h0a16.6,16.6,0,0,0,16.6,16.6h0a16.6,16.6,0,0,1,16.6,16.6h0a16.5,16.5,0,0,0,16.5,16.5H433.7a16.5,16.5,0,0,0,16.6-16.5h0a16.6,16.6,0,0,1,16.6-16.6h0a16.5,16.5,0,0,0,16.5-16.6h0A16.6,16.6,0,0,1,500,417.2h0a16.6,16.6,0,0,1,16.6,16.5h0a16.5,16.5,0,0,0,16.5,16.6h0a16.6,16.6,0,0,1,16.6,16.6h0a16.5,16.5,0,0,0,16.6,16.5H798.2a16.5,16.5,0,0,0,16.5-16.5h0a16.6,16.6,0,0,1,16.6-16.6h0a16.6,16.6,0,0,0,16.6-16.6h0a16.5,16.5,0,0,1,16.5-16.5h0A16.6,16.6,0,0,0,881,400.6V235a16.6,16.6,0,0,0-16.6-16.6ZM616,317.8H765a16.5,16.5,0,0,1,16.6,16.5h0A16.6,16.6,0,0,1,765,350.9h0a16.5,16.5,0,0,0-16.5,16.6h0a16.6,16.6,0,0,1-16.6,16.6H632.5A16.6,16.6,0,0,1,616,367.5h0a16.6,16.6,0,0,0-16.6-16.6h0a16.6,16.6,0,0,1-16.6-16.6h0a16.5,16.5,0,0,1,16.6-16.5ZM400.6,350.9h0A16.6,16.6,0,0,0,384,367.5h0a16.6,16.6,0,0,1-16.5,16.6H268.1a16.6,16.6,0,0,1-16.6-16.6h0A16.5,16.5,0,0,0,235,350.9h0a16.6,16.6,0,0,1-16.6-16.6h0A16.5,16.5,0,0,1,235,317.8H400.6a16.5,16.5,0,0,1,16.6,16.5h0A16.6,16.6,0,0,1,400.6,350.9Z"/><path class="cls-1" d="M665.6,582.8h0a16.5,16.5,0,0,1-16.5-16.5h0a16.6,16.6,0,0,0-16.6-16.6H533.1a16.5,16.5,0,0,0-16.5,16.6h0A16.6,16.6,0,0,1,500,582.8h0a16.6,16.6,0,0,1-16.6-16.5h0a16.5,16.5,0,0,0-16.5-16.6H367.5a16.6,16.6,0,0,0-16.6,16.6h0a16.5,16.5,0,0,1-16.5,16.5h-.1a16.5,16.5,0,0,0-16.5,16.6h0A16.6,16.6,0,0,1,301.2,616h0a16.6,16.6,0,0,0-16.6,16.5v33.2a16.6,16.6,0,0,0,16.6,16.5h0a16.5,16.5,0,0,0,16.6-16.5h0a16.5,16.5,0,0,1,16.5-16.6h.1a16.5,16.5,0,0,0,16.5-16.6h0A16.5,16.5,0,0,1,367.5,616h265a16.5,16.5,0,0,1,16.6,16.5h0a16.5,16.5,0,0,0,16.5,16.6h0a16.6,16.6,0,0,1,16.6,16.6h0a16.5,16.5,0,0,0,16.6,16.5h0a16.5,16.5,0,0,0,16.5-16.5V632.5A16.5,16.5,0,0,0,698.8,616h0a16.6,16.6,0,0,1-16.6-16.6h0A16.6,16.6,0,0,0,665.6,582.8Z"/><path class="cls-1" d="M516.6,649.1H433.7a16.5,16.5,0,0,0-16.5,16.6h0a16.5,16.5,0,0,0,16.5,16.5h0a16.6,16.6,0,0,1,16.6,16.6h0a16.6,16.6,0,0,0,16.6,16.6h0a16.5,16.5,0,0,1,16.5,16.5V765A16.6,16.6,0,0,0,500,781.6h0A16.6,16.6,0,0,0,516.6,765V731.9a16.5,16.5,0,0,1,16.5-16.5h0a16.6,16.6,0,0,0,16.6-16.6h0a16.6,16.6,0,0,1,16.6-16.6h0a16.5,16.5,0,0,0,16.5-16.5h0a16.5,16.5,0,0,0-16.5-16.6H516.6Z"/></svg>